<?xml version="1.0" encoding="utf-8" standalone="no"?>
<!DOCTYPE svg PUBLIC "-//W3C//DTD SVG 1.1//EN"
  "http://www.w3.org/Graphics/SVG/1.1/DTD/svg11.dtd">
<svg xmlns:xlink="http://www.w3.org/1999/xlink" width="720pt" height="720pt" viewBox="0 0 720 720" xmlns="http://www.w3.org/2000/svg" version="1.1">
 <metadata>
  <rdf:RDF xmlns:dc="http://purl.org/dc/elements/1.1/" xmlns:cc="http://creativecommons.org/ns#" xmlns:rdf="http://www.w3.org/1999/02/22-rdf-syntax-ns#">
   <cc:Work>
    <dc:type rdf:resource="http://purl.org/dc/dcmitype/StillImage"/>
    <dc:date>2024-03-28T23:11:58.426535</dc:date>
    <dc:format>image/svg+xml</dc:format>
    <dc:creator>
     <cc:Agent>
      <dc:title>Matplotlib v3.8.3, https://matplotlib.org/</dc:title>
     </cc:Agent>
    </dc:creator>
   </cc:Work>
  </rdf:RDF>
 </metadata>
 <defs>
  <style type="text/css">*{stroke-linejoin: round; stroke-linecap: butt}</style>
 </defs>
 <g id="figure_1">
  <g id="patch_1">
   <path d="M 0 720 
L 720 720 
L 720 0 
L 0 0 
z
" style="fill: #ffffff"/>
  </g>
  <g id="axes_1">
   <g id="patch_2">
    <path d="M 96.469949 640.8 
L 641.530051 640.8 
L 641.530051 86.4 
L 96.469949 86.4 
z
" style="fill: #ffffff"/>
   </g>
   <g id="matplotlib.axis_1">
    <g id="xtick_1">
     <g id="line2d_1">
      <defs>
       <path id="m1178aaa0c2" d="M 0 0 
L 0 3.5 
" style="stroke: #000000; stroke-width: 0.8"/>
      </defs>
      <g>
       <use xlink:href="#m1178aaa0c2" x="126.841457" y="640.8" style="stroke: #000000; stroke-width: 0.8"/>
      </g>
     </g>
     <g id="text_1">
      <!-- −140 -->
      <g transform="translate(113.107864 655.398438) scale(0.1 -0.1)">
       <defs>
        <path id="DejaVuSans-2212" d="M 678 2272 
L 4684 2272 
L 4684 1741 
L 678 1741 
L 678 2272 
z
" transform="scale(0.015625)"/>
        <path id="DejaVuSans-31" d="M 794 531 
L 1825 531 
L 1825 4091 
L 703 3866 
L 703 4441 
L 1819 4666 
L 2450 4666 
L 2450 531 
L 3481 531 
L 3481 0 
L 794 0 
L 794 531 
z
" transform="scale(0.015625)"/>
        <path id="DejaVuSans-34" d="M 2419 4116 
L 825 1625 
L 2419 1625 
L 2419 4116 
z
M 2253 4666 
L 3047 4666 
L 3047 1625 
L 3713 1625 
L 3713 1100 
L 3047 1100 
L 3047 0 
L 2419 0 
L 2419 1100 
L 313 1100 
L 313 1709 
L 2253 4666 
z
" transform="scale(0.015625)"/>
        <path id="DejaVuSans-30" d="M 2034 4250 
Q 1547 4250 1301 3770 
Q 1056 3291 1056 2328 
Q 1056 1369 1301 889 
Q 1547 409 2034 409 
Q 2525 409 2770 889 
Q 3016 1369 3016 2328 
Q 3016 3291 2770 3770 
Q 2525 4250 2034 4250 
z
M 2034 4750 
Q 2819 4750 3233 4129 
Q 3647 3509 3647 2328 
Q 3647 1150 3233 529 
Q 2819 -91 2034 -91 
Q 1250 -91 836 529 
Q 422 1150 422 2328 
Q 422 3509 836 4129 
Q 1250 4750 2034 4750 
z
" transform="scale(0.015625)"/>
       </defs>
       <use xlink:href="#DejaVuSans-2212"/>
       <use xlink:href="#DejaVuSans-31" x="83.789062"/>
       <use xlink:href="#DejaVuSans-34" x="147.412109"/>
       <use xlink:href="#DejaVuSans-30" x="211.035156"/>
      </g>
     </g>
    </g>
    <g id="xtick_2">
     <g id="line2d_2">
      <g>
       <use xlink:href="#m1178aaa0c2" x="239.011456" y="640.8" style="stroke: #000000; stroke-width: 0.8"/>
      </g>
     </g>
     <g id="text_2">
      <!-- −120 -->
      <g transform="translate(225.277863 655.398438) scale(0.1 -0.1)">
       <defs>
        <path id="DejaVuSans-32" d="M 1228 531 
L 3431 531 
L 3431 0 
L 469 0 
L 469 531 
Q 828 903 1448 1529 
Q 2069 2156 2228 2338 
Q 2531 2678 2651 2914 
Q 2772 3150 2772 3378 
Q 2772 3750 2511 3984 
Q 2250 4219 1831 4219 
Q 1534 4219 1204 4116 
Q 875 4013 500 3803 
L 500 4441 
Q 881 4594 1212 4672 
Q 1544 4750 1819 4750 
Q 2544 4750 2975 4387 
Q 3406 4025 3406 3419 
Q 3406 3131 3298 2873 
Q 3191 2616 2906 2266 
Q 2828 2175 2409 1742 
Q 1991 1309 1228 531 
z
" transform="scale(0.015625)"/>
       </defs>
       <use xlink:href="#DejaVuSans-2212"/>
       <use xlink:href="#DejaVuSans-31" x="83.789062"/>
       <use xlink:href="#DejaVuSans-32" x="147.412109"/>
       <use xlink:href="#DejaVuSans-30" x="211.035156"/>
      </g>
     </g>
    </g>
    <g id="xtick_3">
     <g id="line2d_3">
      <g>
       <use xlink:href="#m1178aaa0c2" x="351.181456" y="640.8" style="stroke: #000000; stroke-width: 0.8"/>
      </g>
     </g>
     <g id="text_3">
      <!-- −100 -->
      <g transform="translate(337.447862 655.398438) scale(0.1 -0.1)">
       <use xlink:href="#DejaVuSans-2212"/>
       <use xlink:href="#DejaVuSans-31" x="83.789062"/>
       <use xlink:href="#DejaVuSans-30" x="147.412109"/>
       <use xlink:href="#DejaVuSans-30" x="211.035156"/>
      </g>
     </g>
    </g>
    <g id="xtick_4">
     <g id="line2d_4">
      <g>
       <use xlink:href="#m1178aaa0c2" x="463.351455" y="640.8" style="stroke: #000000; stroke-width: 0.8"/>
      </g>
     </g>
     <g id="text_4">
      <!-- −80 -->
      <g transform="translate(452.799111 655.398438) scale(0.1 -0.1)">
       <defs>
        <path id="DejaVuSans-38" d="M 2034 2216 
Q 1584 2216 1326 1975 
Q 1069 1734 1069 1313 
Q 1069 891 1326 650 
Q 1584 409 2034 409 
Q 2484 409 2743 651 
Q 3003 894 3003 1313 
Q 3003 1734 2745 1975 
Q 2488 2216 2034 2216 
z
M 1403 2484 
Q 997 2584 770 2862 
Q 544 3141 544 3541 
Q 544 4100 942 4425 
Q 1341 4750 2034 4750 
Q 2731 4750 3128 4425 
Q 3525 4100 3525 3541 
Q 3525 3141 3298 2862 
Q 3072 2584 2669 2484 
Q 3125 2378 3379 2068 
Q 3634 1759 3634 1313 
Q 3634 634 3220 271 
Q 2806 -91 2034 -91 
Q 1263 -91 848 271 
Q 434 634 434 1313 
Q 434 1759 690 2068 
Q 947 2378 1403 2484 
z
M 1172 3481 
Q 1172 3119 1398 2916 
Q 1625 2713 2034 2713 
Q 2441 2713 2670 2916 
Q 2900 3119 2900 3481 
Q 2900 3844 2670 4047 
Q 2441 4250 2034 4250 
Q 1625 4250 1398 4047 
Q 1172 3844 1172 3481 
z
" transform="scale(0.015625)"/>
       </defs>
       <use xlink:href="#DejaVuSans-2212"/>
       <use xlink:href="#DejaVuSans-38" x="83.789062"/>
       <use xlink:href="#DejaVuSans-30" x="147.412109"/>
      </g>
     </g>
    </g>
    <g id="xtick_5">
     <g id="line2d_5">
      <g>
       <use xlink:href="#m1178aaa0c2" x="575.521454" y="640.8" style="stroke: #000000; stroke-width: 0.8"/>
      </g>
     </g>
     <g id="text_5">
      <!-- −60 -->
      <g transform="translate(564.96911 655.398438) scale(0.1 -0.1)">
       <defs>
        <path id="DejaVuSans-36" d="M 2113 2584 
Q 1688 2584 1439 2293 
Q 1191 2003 1191 1497 
Q 1191 994 1439 701 
Q 1688 409 2113 409 
Q 2538 409 2786 701 
Q 3034 994 3034 1497 
Q 3034 2003 2786 2293 
Q 2538 2584 2113 2584 
z
M 3366 4563 
L 3366 3988 
Q 3128 4100 2886 4159 
Q 2644 4219 2406 4219 
Q 1781 4219 1451 3797 
Q 1122 3375 1075 2522 
Q 1259 2794 1537 2939 
Q 1816 3084 2150 3084 
Q 2853 3084 3261 2657 
Q 3669 2231 3669 1497 
Q 3669 778 3244 343 
Q 2819 -91 2113 -91 
Q 1303 -91 875 529 
Q 447 1150 447 2328 
Q 447 3434 972 4092 
Q 1497 4750 2381 4750 
Q 2619 4750 2861 4703 
Q 3103 4656 3366 4563 
z
" transform="scale(0.015625)"/>
       </defs>
       <use xlink:href="#DejaVuSans-2212"/>
       <use xlink:href="#DejaVuSans-36" x="83.789062"/>
       <use xlink:href="#DejaVuSans-30" x="147.412109"/>
      </g>
     </g>
    </g>
   </g>
   <g id="matplotlib.axis_2">
    <g id="ytick_1">
     <g id="line2d_6">
      <defs>
       <path id="med204bfea0" d="M 0 0 
L -3.5 0 
" style="stroke: #000000; stroke-width: 0.8"/>
      </defs>
      <g>
       <use xlink:href="#med204bfea0" x="96.469949" y="635.914987" style="stroke: #000000; stroke-width: 0.8"/>
      </g>
     </g>
     <g id="text_6">
      <!-- 40 -->
      <g transform="translate(76.744949 639.714206) scale(0.1 -0.1)">
       <use xlink:href="#DejaVuSans-34"/>
       <use xlink:href="#DejaVuSans-30" x="63.623047"/>
      </g>
     </g>
    </g>
    <g id="ytick_2">
     <g id="line2d_7">
      <g>
       <use xlink:href="#med204bfea0" x="96.469949" y="514.639092" style="stroke: #000000; stroke-width: 0.8"/>
      </g>
     </g>
     <g id="text_7">
      <!-- 50 -->
      <g transform="translate(76.744949 518.438311) scale(0.1 -0.1)">
       <defs>
        <path id="DejaVuSans-35" d="M 691 4666 
L 3169 4666 
L 3169 4134 
L 1269 4134 
L 1269 2991 
Q 1406 3038 1543 3061 
Q 1681 3084 1819 3084 
Q 2600 3084 3056 2656 
Q 3513 2228 3513 1497 
Q 3513 744 3044 326 
Q 2575 -91 1722 -91 
Q 1428 -91 1123 -41 
Q 819 9 494 109 
L 494 744 
Q 775 591 1075 516 
Q 1375 441 1709 441 
Q 2250 441 2565 725 
Q 2881 1009 2881 1497 
Q 2881 1984 2565 2268 
Q 2250 2553 1709 2553 
Q 1456 2553 1204 2497 
Q 953 2441 691 2322 
L 691 4666 
z
" transform="scale(0.015625)"/>
       </defs>
       <use xlink:href="#DejaVuSans-35"/>
       <use xlink:href="#DejaVuSans-30" x="63.623047"/>
      </g>
     </g>
    </g>
    <g id="ytick_3">
     <g id="line2d_8">
      <g>
       <use xlink:href="#med204bfea0" x="96.469949" y="393.363197" style="stroke: #000000; stroke-width: 0.8"/>
      </g>
     </g>
     <g id="text_8">
      <!-- 60 -->
      <g transform="translate(76.744949 397.162416) scale(0.1 -0.1)">
       <use xlink:href="#DejaVuSans-36"/>
       <use xlink:href="#DejaVuSans-30" x="63.623047"/>
      </g>
     </g>
    </g>
    <g id="ytick_4">
     <g id="line2d_9">
      <g>
       <use xlink:href="#med204bfea0" x="96.469949" y="272.087302" style="stroke: #000000; stroke-width: 0.8"/>
      </g>
     </g>
     <g id="text_9">
      <!-- 70 -->
      <g transform="translate(76.744949 275.886521) scale(0.1 -0.1)">
       <defs>
        <path id="DejaVuSans-37" d="M 525 4666 
L 3525 4666 
L 3525 4397 
L 1831 0 
L 1172 0 
L 2766 4134 
L 525 4134 
L 525 4666 
z
" transform="scale(0.015625)"/>
       </defs>
       <use xlink:href="#DejaVuSans-37"/>
       <use xlink:href="#DejaVuSans-30" x="63.623047"/>
      </g>
     </g>
    </g>
    <g id="ytick_5">
     <g id="line2d_10">
      <g>
       <use xlink:href="#med204bfea0" x="96.469949" y="150.811407" style="stroke: #000000; stroke-width: 0.8"/>
      </g>
     </g>
     <g id="text_10">
      <!-- 80 -->
      <g transform="translate(76.744949 154.610626) scale(0.1 -0.1)">
       <use xlink:href="#DejaVuSans-38"/>
       <use xlink:href="#DejaVuSans-30" x="63.623047"/>
      </g>
     </g>
    </g>
   </g>
   <g id="LineCollection_1">
    <path d="M 223.083317 526.766681 
L 222.3306 526.735904 
L 211.472376 514.826342 
L 207.465831 509.587223 
L 197.308838 504.565795 
L 194.184062 493.83021 
L 194.982937 486.386538 
L 187.80703 481.222974 
L 186.823074 471.445591 
L 180.038248 462.641203 
L 179.919684 456.392948 
L 183.038627 450.544782 
L 182.882823 442.894334 
L 173.348205 435.17767 
L 164.106799 412.642669 
L 158.971937 407.175188 
L 155.192425 402.209546 
L 152.215265 395.936914 
L 146.584948 399.864919 
L 141.129111 406.642908 
L 136.146576 398.673747 
L 132.231226 393.363197 
L 126.768547 390.006038 
L 121.245408 389.647425 
L 121.311476 275.580048 
L 121.311546 275.580067 
L 131.774021 278.502555 
L 140.602697 284.335925 
L 146.451129 285.451421 
L 151.374382 280.393246 
L 158.166949 276.605678 
L 166.497758 278.086336 
L 174.898674 272.760262 
L 184.077826 269.738309 
L 187.930753 274.764225 
L 192.115648 271.931341 
L 193.36853 266.219489 
L 197.244284 267.512654 
L 206.727136 278.386615 
L 214.194798 270.166292 
L 214.952786 279.367616 
L 221.843389 277.378327 
L 223.961047 273.839375 
L 230.754286 274.539743 
L 239.331814 279.632361 
L 252.456826 284.078093 
L 260.175524 286.136993 
L 265.669218 285.355977 
L 273.23486 291.504786 
L 265.343981 297.523587 
L 275.482017 300.12447 
L 290.620873 298.693778 
L 295.398249 296.57242 
L 301.376854 303.844123 
L 307.477837 297.708533 
L 301.753802 292.563039 
L 305.375659 288.412008 
L 312.202381 287.853169 
L 316.689181 286.64041 
L 321.21625 289.536235 
L 326.852287 296.124185 
L 333.115636 295.157009 
L 343.024846 300.624854 
L 351.731369 298.699357 
L 359.912768 298.99054 
L 359.265547 291.443663 
L 364.252177 289.324973 
L 372.94294 293.439258 
L 372.909457 304.912079 
L 376.478987 295.242509 
L 380.990633 295.568377 
L 383.526684 283.377724 
L 377.518523 275.898882 
L 370.972113 270.99873 
L 371.421691 257.597016 
L 378.052901 248.795903 
L 385.449559 250.740926 
L 391.124183 256.094771 
L 398.743554 269.767416 
L 393.767244 275.725943 
L 404.198045 278.179476 
L 404.173311 290.581998 
L 411.668286 281.077121 
L 418.373192 288.883044 
L 416.702812 297.878077 
L 422.128027 306.060076 
L 427.983861 297.294982 
L 432.074869 286.82766 
L 432.381486 273.517024 
L 440.352062 274.447452 
L 448.642715 276.231785 
L 456.170163 282.24998 
L 456.507963 288.269509 
L 452.334342 294.735212 
L 456.288783 301.227959 
L 455.575101 307.126576 
L 444.59349 315.606672 
L 436.792852 317.477231 
L 430.993607 313.826463 
L 429.32132 319.915483 
L 423.91568 330.142437 
L 422.279063 335.446317 
L 415.774774 343.652572 
L 407.746318 344.455903 
L 403.318183 349.580537 
L 402.947686 357.462985 
L 396.422869 358.980511 
L 389.560533 368.808588 
L 383.477834 382.464739 
L 381.30297 392.026616 
L 380.992876 406.111477 
L 389.235016 408.133146 
L 391.761084 419.489542 
L 394.383562 428.689774 
L 402.231761 426.293483 
L 412.653251 431.544245 
L 418.260349 436.153941 
L 422.273623 441.883985 
L 429.301074 445.222831 
L 435.242718 450.331336 
L 444.50381 451.031219 
L 450.604176 452.202381 
L 449.688027 462.705479 
L 451.43328 474.896617 
L 455.495348 488.469209 
L 463.840011 499.98387 
L 468.157883 496.036219 
L 471.192642 483.567238 
L 468.263323 464.413287 
L 464.307255 458.0309 
L 473.285566 452.346335 
L 479.640782 443.84538 
L 482.749181 435.394633 
L 482.290293 427.288552 
L 478.481729 416.98665 
L 471.669533 407.86076 
L 478.288236 395.150683 
L 475.843154 384.17194 
L 473.969074 365.231555 
L 477.873712 362.431416 
L 487.489261 365.731697 
L 493.254855 366.91159 
L 497.900487 363.725794 
L 503.123964 367.833772 
L 510.030551 374.864379 
L 511.732114 379.572066 
L 521.733584 380.490852 
L 521.565833 390.679968 
L 523.430267 406.007907 
L 528.55279 407.903449 
L 532.617775 415.046599 
L 540.738771 408.312755 
L 546.103918 394.931173 
L 549.814782 389.293421 
L 554.182514 400.123116 
L 561.486968 415.592098 
L 567.688903 430.140719 
L 565.433669 437.756845 
L 572.893703 444.596441 
L 577.93524 451.526267 
L 586.878218 454.662219 
L 590.478201 458.530799 
L 592.700906 468.792923 
L 597.068694 470.403831 
L 599.322133 474.977508 
L 599.731217 488.605523 
L 595.66068 493.164769 
L 591.635179 497.421311 
L 582.392876 501.731699 
L 575.335869 511.694877 
L 565.854307 513.663306 
L 553.858567 511.110085 
L 545.44133 511.022645 
L 539.632382 511.862238 
L 534.936609 520.562692 
L 527.786725 525.937639 
L 519.696576 541.988262 
L 513.241417 553.184088 
L 518.005053 551.190919 
L 527.007929 535.255994 
L 538.77215 525.152499 
L 547.16342 523.943621 
L 552.128457 529.889778 
L 546.831453 538.035031 
L 548.608842 551.107117 
L 550.439176 560.257141 
L 557.724057 566.314508 
L 566.992496 564.55904 
L 572.61541 550.925689 
L 573.005481 559.721708 
L 576.627057 564.114806 
L 569.689287 572.060196 
L 557.267413 579.277446 
L 551.704622 584.18439 
L 545.437124 592.919893 
L 541.178365 592.029243 
L 540.963391 581.763844 
L 550.701093 571.735298 
L 541.724353 572.132234 
L 535.49129 573.609132 
L 531.823724 566.753648 
L 531.828659 550.217074 
L 529.338597 546.718264 
L 525.577762 548.778256 
L 523.714528 545.591356 
L 519.436622 554.744182 
L 517.725862 564.180295 
L 515.734844 569.698348 
L 513.352241 571.575214 
L 511.556512 572.184504 
L 510.995325 575.177593 
L 492.139885 575.271218 
L 489.609274 577.503058 
L 482.981205 587.180767 
L 481.186293 591.906581 
L 470.528765 591.95139 
L 467.997124 593.876645 
L 468.90387 596.257769 
L 469.408635 599.956684 
L 469.300042 601.186284 
L 461.963644 607.218686 
L 456.185213 609.124827 
L 449.670766 615.6 
L 448.264089 615.6 
L 446.358765 613.687593 
L 445.72955 611.954738 
L 445.852935 610.689601 
L 447.086805 606.444944 
L 449.7228 599.77477 
L 451.362487 592.606303 
L 449.044594 571.062501 
L 443.200952 565.370089 
L 443.892479 563.213891 
L 443.070384 561.731407 
L 441.530097 561.731407 
L 440.402307 559.809286 
L 440.120378 556.937385 
L 439.029073 558.192055 
L 437.524873 557.818162 
L 437.86784 556.616509 
L 436.547097 555.422939 
L 436.003961 552.233609 
L 427.109379 544.311204 
L 416.362802 535.220611 
L 411.344298 538.654045 
L 409.509855 538.772995 
L 402.6114 535.619822 
L 398.068515 537.196408 
L 392.62827 533.436856 
L 386.902721 531.505416 
L 382.986474 530.759812 
L 381.243015 528.707096 
L 380.247058 522.048443 
L 378.348525 522.106655 
L 378.331814 526.766681 
L 239.011456 526.766681 
L 223.083317 526.766681 
L 223.083317 526.766681 
" clip-path="url(#pc0a5950c81)" style="fill: none; stroke: #000000; stroke-width: 1.5"/>
    <path d="M 440.952957 363.616646 
L 445.121138 358.02231 
L 452.824356 358.137643 
L 452.70512 360.487728 
L 446.14138 367.177063 
L 442.181499 366.897037 
L 440.952957 363.616646 
" clip-path="url(#pc0a5950c81)" style="fill: none; stroke: #000000; stroke-width: 1.5"/>
    <path d="M 464.608695 238.094855 
L 458.437856 231.663824 
L 458.67461 227.297884 
L 461.37133 226.490963 
L 474.207055 227.798173 
L 483.878565 234.459212 
L 484.375456 237.810059 
L 478.41343 237.456424 
L 472.371772 237.200404 
L 466.232811 238.830993 
L 464.608695 238.094855 
" clip-path="url(#pc0a5950c81)" style="fill: none; stroke: #000000; stroke-width: 1.5"/>
    <path d="M 461.582562 368.070321 
L 463.747471 364.43162 
L 466.043422 364.697093 
L 467.469103 367.183673 
L 465.272254 373.557873 
L 462.793072 372.526786 
L 461.320336 368.908034 
L 461.582562 368.070321 
" clip-path="url(#pc0a5950c81)" style="fill: none; stroke: #000000; stroke-width: 1.5"/>
    <path d="M 387.004314 211.69194 
L 383.952433 216.393209 
L 375.81017 215.489492 
L 369.011257 212.327111 
L 371.996913 206.867209 
L 380.060632 203.600167 
L 384.957264 207.853651 
L 387.004314 211.69194 
" clip-path="url(#pc0a5950c81)" style="fill: none; stroke: #000000; stroke-width: 1.5"/>
    <path d="M 385.729798 180.887863 
L 383.174536 181.235374 
L 372.66395 180.462013 
L 371.168442 177.072135 
L 382.462431 177.249494 
L 386.399154 179.501265 
L 385.729798 180.887863 
" clip-path="url(#pc0a5950c81)" style="fill: none; stroke: #000000; stroke-width: 1.5"/>
    <path d="M 369.38441 165.779124 
L 376.087245 169.99344 
L 374.567246 174.376027 
L 366.269202 176.878482 
L 361.701379 174.061731 
L 359.297696 169.510872 
L 358.853971 164.492174 
L 366.115593 164.976622 
L 369.38441 165.779124 
" clip-path="url(#pc0a5950c81)" style="fill: none; stroke: #000000; stroke-width: 1.5"/>
    <path d="M 417.640215 218.819206 
L 408.586011 217.324501 
L 393.680195 213.416961 
L 391.740526 206.758161 
L 391.058418 200.744873 
L 385.427943 195.450109 
L 373.826013 193.968879 
L 367.326202 190.213002 
L 369.436434 185.23692 
L 380.99576 186.007148 
L 387.222119 189.907168 
L 398.264683 189.880219 
L 403.105813 193.869232 
L 401.828109 198.424164 
L 408.263434 201.167903 
L 411.825701 204.049518 
L 419.390482 204.582849 
L 427.573755 205.598746 
L 436.488842 202.969696 
L 447.908761 201.937503 
L 457.022089 202.790456 
L 463.028904 207.36419 
L 464.282842 212.381635 
L 460.784047 215.605434 
L 452.421371 218.210983 
L 445.242205 216.736647 
L 429.153893 218.604244 
L 417.640215 218.819206 
" clip-path="url(#pc0a5950c81)" style="fill: none; stroke: #000000; stroke-width: 1.5"/>
    <path d="M 288.004826 173.211598 
L 295.912763 175.111158 
L 294.048014 178.741066 
L 283.59235 182.231217 
L 275.274453 178.314276 
L 279.815611 174.447472 
L 288.004826 173.211598 
" clip-path="url(#pc0a5950c81)" style="fill: none; stroke: #000000; stroke-width: 1.5"/>
    <path d="M 289.691765 165.310658 
L 296.985703 167.76611 
L 290.153605 170.131629 
L 280.839136 170.119722 
L 280.929997 168.389687 
L 286.683648 164.758213 
L 289.691765 165.310658 
" clip-path="url(#pc0a5950c81)" style="fill: none; stroke: #000000; stroke-width: 1.5"/>
    <path d="M 600.197629 498.666151 
L 597.203714 506.307319 
L 593.491751 516.915336 
L 597.152849 512.818529 
L 600.919589 515.417497 
L 598.951517 519.646227 
L 603.927706 522.970613 
L 606.515284 520.015359 
L 612.108226 523.745227 
L 610.372595 532.626969 
L 614.297871 530.552871 
L 615.012875 536.988248 
L 616.754592 544.526949 
L 614.393079 555.19983 
L 611.856366 555.651062 
L 608.168894 553.361688 
L 609.386313 543.439606 
L 607.823709 541.898525 
L 601.316218 552.416608 
L 597.969582 551.995459 
L 601.930652 546.297407 
L 596.548849 543.350614 
L 590.522905 544.075091 
L 579.638008 543.704705 
L 578.777221 540.113653 
L 582.270798 535.843874 
L 579.830888 532.549257 
L 584.541015 525.243692 
L 590.335242 505.928159 
L 593.812735 499.025569 
L 598.679079 494.845723 
L 601.281439 495.377174 
L 600.197629 498.666151 
" clip-path="url(#pc0a5950c81)" style="fill: none; stroke: #000000; stroke-width: 1.5"/>
    <path d="M 441.575745 331.39585 
L 447.71733 335.554701 
L 454.142221 339.333139 
L 454.638985 345.100129 
L 458.767284 344.155677 
L 462.771248 348.176025 
L 457.79332 351.993006 
L 449.065606 349.076608 
L 445.915764 343.617332 
L 440.354268 350.071198 
L 432.37344 356.345197 
L 430.447682 349.252087 
L 422.846962 350.416515 
L 427.722002 344.418268 
L 428.439179 334.87284 
L 430.351894 323.765649 
L 434.404259 324.753971 
L 435.444884 330.087278 
L 438.315044 328.216547 
L 441.575745 331.39585 
" clip-path="url(#pc0a5950c81)" style="fill: none; stroke: #000000; stroke-width: 1.5"/>
    <path d="M 470.246328 243.561112 
L 475.552051 238.741081 
L 487.996075 244.876891 
L 495.720261 250.656102 
L 496.446423 255.947419 
L 506.860931 253.205561 
L 512.706168 260.929768 
L 526.244869 265.72003 
L 531.130342 270.608373 
L 536.43563 281.958101 
L 526.137923 287.60821 
L 539.34738 295.527951 
L 548.251164 298.191471 
L 556.312709 309.337518 
L 565.134616 310.142215 
L 563.389277 318.654197 
L 553.544859 332.741397 
L 546.644071 327.558501 
L 537.825497 315.891657 
L 530.569237 317.41143 
L 529.861044 324.35977 
L 535.759174 331.409951 
L 543.373081 336.989241 
L 545.683294 340.21116 
L 549.333089 352.215174 
L 547.401535 360.931778 
L 540.327866 357.646248 
L 526.260954 347.937248 
L 534.1886 358.387647 
L 540.029199 365.711386 
L 540.941865 369.94607 
L 525.732744 365.104104 
L 513.696508 358.063324 
L 506.899334 352.155637 
L 508.857262 348.733797 
L 500.489224 342.500534 
L 492.322616 336.617289 
L 492.411883 340.134075 
L 476.195033 342.069044 
L 471.450415 337.904866 
L 475.144554 328.975494 
L 485.682963 328.759905 
L 497.227942 327.21005 
L 495.354209 322.88042 
L 497.311413 316.831096 
L 504.567383 305.018856 
L 503.025647 299.654213 
L 500.863246 295.500376 
L 492.272766 289.61619 
L 480.911102 285.491495 
L 484.503076 282.422807 
L 478.56524 274.882225 
L 473.622671 274.19159 
L 469.199762 270.063448 
L 466.198021 273.641965 
L 456.029721 275.201848 
L 435.61907 272.491951 
L 423.755426 268.934115 
L 414.660066 267.106001 
L 409.995441 262.845622 
L 415.860241 257.313648 
L 407.893759 257.260691 
L 406.115814 244.981238 
L 410.426415 234.134445 
L 416.193832 229.181238 
L 430.675487 225.956186 
L 426.547477 233.795081 
L 430.965893 241.354464 
L 436.149599 231.577779 
L 450.364467 226.59731 
L 459.985863 239.142176 
L 459.151016 247.081345 
L 470.246328 243.561112 
" clip-path="url(#pc0a5950c81)" style="fill: none; stroke: #000000; stroke-width: 1.5"/>
    <path d="M 382.007692 221.940851 
L 393.693817 222.363881 
L 404.407282 225.314434 
L 396.027216 236.11391 
L 389.340032 238.469715 
L 383.323507 247.53383 
L 376.925281 247.081658 
L 373.426196 236.428832 
L 373.512999 230.399563 
L 376.443298 225.245496 
L 382.007692 221.940851 
" clip-path="url(#pc0a5950c81)" style="fill: none; stroke: #000000; stroke-width: 1.5"/>
    <path d="M 222.999613 197.908381 
L 222.999608 197.908381 
L 232.519419 188.837373 
L 244.037015 180.982183 
L 252.639378 181.150768 
L 260.331683 179.368403 
L 259.562047 188.686335 
L 255.242172 192.893757 
L 250.001805 193.486312 
L 239.576134 198.676415 
L 230.598734 200.534298 
L 222.999613 197.908381 
" clip-path="url(#pc0a5950c81)" style="fill: none; stroke: #000000; stroke-width: 1.5"/>
    <path d="M 167.727378 465.643518 
L 173.11164 464.67337 
L 171.431946 478.442828 
L 176.313797 488.195698 
L 174.0772 488.172196 
L 170.697524 482.625807 
L 168.624824 477.043383 
L 165.79467 473.266199 
L 164.756799 467.934772 
L 165.091404 464.067341 
L 167.727378 465.643518 
" clip-path="url(#pc0a5950c81)" style="fill: none; stroke: #000000; stroke-width: 1.5"/>
    <path d="M 320.377952 159.281389 
L 331.387475 160.933712 
L 346.553557 165.358915 
L 350.84387 171.128099 
L 353.026994 176.187847 
L 343.868307 174.836345 
L 334.637453 170.90405 
L 322.151115 170.454072 
L 327.567262 166.851113 
L 320.785739 163.929388 
L 320.377952 159.281389 
" clip-path="url(#pc0a5950c81)" style="fill: none; stroke: #000000; stroke-width: 1.5"/>
    <path d="M 219.325613 532.709068 
L 216.505159 534.3968 
L 207.295318 528.888954 
L 205.61287 524.583766 
L 200.593207 520.339055 
L 199.583738 516.882747 
L 193.810669 514.700227 
L 191.650007 508.100652 
L 192.133294 505.292988 
L 198.02128 507.937707 
L 201.462544 509.777102 
L 206.734502 511.061232 
L 208.64142 515.245465 
L 211.413328 521.002742 
L 217.012067 526.008906 
L 219.325613 532.709068 
" clip-path="url(#pc0a5950c81)" style="fill: none; stroke: #000000; stroke-width: 1.5"/>
    <path d="M 230.386257 218.132506 
L 238.395755 220.649951 
L 252.720649 221.324002 
L 258.167737 224.837365 
L 264.189078 229.941625 
L 257.138465 233.001052 
L 243.386086 241.525777 
L 236.431546 250.015089 
L 236.431546 255.307548 
L 221.668909 261.152583 
L 218.708687 255.836332 
L 205.758948 249.424616 
L 208.164707 244.287704 
L 212.049771 235.430935 
L 216.913967 227.457773 
L 211.430256 220.026593 
L 230.386257 218.132506 
" clip-path="url(#pc0a5950c81)" style="fill: none; stroke: #000000; stroke-width: 1.5"/>
    <path d="M 307.326183 201.195235 
L 312.320552 199.16629 
L 318.197867 199.69287 
L 319.185075 205.634054 
L 315.772359 211.385442 
L 296.779006 213.268493 
L 282.628368 218.520225 
L 274.099298 218.7954 
L 273.38399 214.841563 
L 285.033629 209.478622 
L 259.694426 210.922654 
L 251.852678 208.754604 
L 259.504803 196.908011 
L 264.783243 193.514227 
L 280.5673 197.607652 
L 290.529903 204.789004 
L 300.328626 205.710458 
L 292.307573 194.109085 
L 297.445857 189.690398 
L 303.236689 191.095379 
L 305.127763 196.875873 
L 307.326183 201.195235 
" clip-path="url(#pc0a5950c81)" style="fill: none; stroke: #000000; stroke-width: 1.5"/>
    <path d="M 314.59951 234.782716 
L 320.881759 239.675228 
L 324.401766 251.489804 
L 326.140849 260.04497 
L 335.559708 266.050673 
L 345.680751 271.792359 
L 345.072173 277.12668 
L 335.863745 278.102344 
L 339.441239 282.76419 
L 337.551455 287.212589 
L 327.401416 285.306375 
L 317.754796 282.031926 
L 311.23469 282.769041 
L 300.704956 286.882961 
L 286.492182 288.701382 
L 276.514374 289.847672 
L 273.475913 284.124663 
L 265.820086 280.819167 
L 260.840075 282.17491 
L 253.930066 272.572406 
L 257.661233 271.280211 
L 266.31857 269.209425 
L 274.224928 269.754318 
L 281.545759 267.643996 
L 270.699481 264.810749 
L 258.715014 265.775498 
L 250.762386 265.531613 
L 247.803453 261.060898 
L 260.811079 256.210105 
L 252.159575 256.379648 
L 242.365395 253.185363 
L 247.072722 244.098645 
L 250.97764 239.270773 
L 265.993445 231.889315 
L 271.724883 234.231638 
L 268.925288 239.915597 
L 281.405995 236.245424 
L 289.205344 242.369857 
L 295.543173 236.175933 
L 300.668276 240.151115 
L 305.257095 252.065986 
L 308.074581 247.038009 
L 304.090303 234.618751 
L 309.025446 232.842665 
L 314.59951 234.782716 
" clip-path="url(#pc0a5950c81)" style="fill: none; stroke: #000000; stroke-width: 1.5"/>
    <path d="M 348.722914 239.2715 
L 342.544366 231.338602 
L 349.182474 225.470182 
L 355.870891 228.02304 
L 365.875725 226.487566 
L 367.333935 230.004567 
L 362.097896 235.819503 
L 370.586865 241.040673 
L 369.577335 251.955504 
L 360.381302 256.6507 
L 354.979195 255.637561 
L 351.098338 251.006277 
L 337.160206 241.647053 
L 337.272376 237.766224 
L 348.722914 239.2715 
" clip-path="url(#pc0a5950c81)" style="fill: none; stroke: #000000; stroke-width: 1.5"/>
    <path d="M 314.165356 228.42798 
L 321.680746 227.942877 
L 325.943206 230.610946 
L 321.007726 238.615155 
L 312.258466 230.125843 
L 314.165356 228.42798 
" clip-path="url(#pc0a5950c81)" style="fill: none; stroke: #000000; stroke-width: 1.5"/>
    <path d="M 359.594205 190.589901 
L 363.881427 196.210311 
L 364.056244 202.43322 
L 361.501095 211.449355 
L 352.254137 212.69316 
L 346.225448 210.753716 
L 346.341769 203.678602 
L 337.148484 204.61182 
L 336.792737 195.239619 
L 342.826305 195.618363 
L 351.274052 191.483219 
L 359.162407 192.183587 
L 359.594205 190.589901 
" clip-path="url(#pc0a5950c81)" style="fill: none; stroke: #000000; stroke-width: 1.5"/>
    <path d="M 373.523252 143.506596 
L 377.409886 139.808167 
L 383.158711 138.959478 
L 380.707852 136.179956 
L 393.750868 135.562298 
L 400.912642 142.037703 
L 410.35113 144.634559 
L 419.54907 146.930579 
L 423.979785 154.934788 
L 430.741673 158.853212 
L 423.040025 162.462383 
L 412.676695 171.583179 
L 402.755202 172.455153 
L 391.132539 170.902821 
L 385.106374 165.958888 
L 385.192857 161.559726 
L 389.626377 158.3293 
L 379.369776 158.421712 
L 373.188424 154.388804 
L 369.634991 148.898038 
L 373.523252 143.506596 
" clip-path="url(#pc0a5950c81)" style="fill: none; stroke: #000000; stroke-width: 1.5"/>
    <path d="M 398.365654 127.838236 
L 406.705605 125.525383 
L 413.254819 125.131115 
L 424.258864 123.165233 
L 432.504705 118.645724 
L 439.459217 119.279675 
L 445.516425 122.6754 
L 449.778885 116.126501 
L 457.182105 114.186087 
L 467.240164 112.845261 
L 484.38333 112.34198 
L 487.362677 113.651988 
L 503.555818 111.6 
L 515.702511 112.369608 
L 527.849204 113.139215 
L 542.838762 114.088945 
L 554.882174 115.641398 
L 565.145729 118.932826 
L 564.899628 122.170286 
L 551.214215 127.432447 
L 537.644898 129.888041 
L 532.574085 132.602923 
L 544.785135 132.540345 
L 531.550814 139.896577 
L 522.410642 143.330746 
L 512.818424 153.236925 
L 501.249211 155.248286 
L 497.675474 157.722166 
L 480.694451 159.020694 
L 488.425712 160.541858 
L 484.549005 162.707724 
L 489.18729 168.689779 
L 483.85871 172.847723 
L 475.193746 176.280437 
L 472.534308 181.026205 
L 464.700243 184.651263 
L 465.484648 187.395979 
L 475.068228 186.926823 
L 475.190381 189.887046 
L 460.203684 197.161599 
L 445.547888 193.815476 
L 429.0732 195.695495 
L 420.726855 194.228178 
L 410.122976 193.592813 
L 409.419558 187.774724 
L 419.788048 185.031463 
L 417.025245 176.279345 
L 420.44643 175.427719 
L 435.441652 180.66068 
L 427.793565 172.88362 
L 418.697027 170.557427 
L 423.239575 165.865748 
L 433.185128 162.976592 
L 434.776428 158.749764 
L 426.855039 154.01018 
L 424.474511 147.761925 
L 439.804504 148.284503 
L 444.233785 149.598648 
L 452.985657 145.179112 
L 440.356605 143.777406 
L 420.732744 144.550297 
L 410.818711 140.43395 
L 406.144755 135.530645 
L 399.594812 131.976048 
L 398.365654 127.838236 
" clip-path="url(#pc0a5950c81)" style="fill: none; stroke: #000000; stroke-width: 1.5"/>
    <path d="M 490.182687 303.082389 
L 486.537667 306.664758 
L 480.250594 307.272714 
L 478.851105 301.337957 
L 481.233259 294.540807 
L 486.373169 292.859316 
L 490.751781 296.216839 
L 490.814428 301.411571 
L 490.182687 303.082389 
" clip-path="url(#pc0a5950c81)" style="fill: none; stroke: #000000; stroke-width: 1.5"/>
    <path d="M 372.171821 278.272005 
L 375.591435 282.908867 
L 372.103846 287.161407 
L 364.544261 283.486868 
L 359.976698 284.812778 
L 352.317731 279.363488 
L 357.253211 275.603935 
L 361.174338 270.346504 
L 367.124171 273.784797 
L 370.489271 275.967763 
L 372.171821 278.272005 
" clip-path="url(#pc0a5950c81)" style="fill: none; stroke: #000000; stroke-width: 1.5"/>
    <path d="M 550.175969 516.178811 
L 552.11595 515.158395 
L 559.490734 518.199631 
L 565.226575 523.267266 
L 565.390792 525.492557 
L 562.660154 525.70952 
L 555.391089 521.907278 
L 550.175969 516.178811 
" clip-path="url(#pc0a5950c81)" style="fill: none; stroke: #000000; stroke-width: 1.5"/>
    <path d="M 553.004112 550.585146 
L 554.969106 556.479154 
L 559.03639 558.105949 
L 564.236703 557.77523 
L 561.478275 562.74451 
L 559.400774 563.53535 
L 552.28656 558.387552 
L 550.885501 554.326992 
L 553.004112 550.585146 
" clip-path="url(#pc0a5950c81)" style="fill: none; stroke: #000000; stroke-width: 1.5"/>
   </g>
   <g id="patch_3">
    <path d="M 96.469949 640.8 
L 96.469949 86.4 
" style="fill: none; stroke: #000000; stroke-width: 0.8; stroke-linejoin: miter; stroke-linecap: square"/>
   </g>
   <g id="patch_4">
    <path d="M 641.530051 640.8 
L 641.530051 86.4 
" style="fill: none; stroke: #000000; stroke-width: 0.8; stroke-linejoin: miter; stroke-linecap: square"/>
   </g>
   <g id="patch_5">
    <path d="M 96.469949 640.8 
L 641.530051 640.8 
" style="fill: none; stroke: #000000; stroke-width: 0.8; stroke-linejoin: miter; stroke-linecap: square"/>
   </g>
   <g id="patch_6">
    <path d="M 96.469949 86.4 
L 641.530051 86.4 
" style="fill: none; stroke: #000000; stroke-width: 0.8; stroke-linejoin: miter; stroke-linecap: square"/>
   </g>
   <g id="text_11">
    <!-- Canada -->
    <g transform="translate(346.37866 377.754345) scale(0.08 -0.08)">
     <defs>
      <path id="DejaVuSans-43" d="M 4122 4306 
L 4122 3641 
Q 3803 3938 3442 4084 
Q 3081 4231 2675 4231 
Q 1875 4231 1450 3742 
Q 1025 3253 1025 2328 
Q 1025 1406 1450 917 
Q 1875 428 2675 428 
Q 3081 428 3442 575 
Q 3803 722 4122 1019 
L 4122 359 
Q 3791 134 3420 21 
Q 3050 -91 2638 -91 
Q 1578 -91 968 557 
Q 359 1206 359 2328 
Q 359 3453 968 4101 
Q 1578 4750 2638 4750 
Q 3056 4750 3426 4639 
Q 3797 4528 4122 4306 
z
" transform="scale(0.015625)"/>
      <path id="DejaVuSans-61" d="M 2194 1759 
Q 1497 1759 1228 1600 
Q 959 1441 959 1056 
Q 959 750 1161 570 
Q 1363 391 1709 391 
Q 2188 391 2477 730 
Q 2766 1069 2766 1631 
L 2766 1759 
L 2194 1759 
z
M 3341 1997 
L 3341 0 
L 2766 0 
L 2766 531 
Q 2569 213 2275 61 
Q 1981 -91 1556 -91 
Q 1019 -91 701 211 
Q 384 513 384 1019 
Q 384 1609 779 1909 
Q 1175 2209 1959 2209 
L 2766 2209 
L 2766 2266 
Q 2766 2663 2505 2880 
Q 2244 3097 1772 3097 
Q 1472 3097 1187 3025 
Q 903 2953 641 2809 
L 641 3341 
Q 956 3463 1253 3523 
Q 1550 3584 1831 3584 
Q 2591 3584 2966 3190 
Q 3341 2797 3341 1997 
z
" transform="scale(0.015625)"/>
      <path id="DejaVuSans-6e" d="M 3513 2113 
L 3513 0 
L 2938 0 
L 2938 2094 
Q 2938 2591 2744 2837 
Q 2550 3084 2163 3084 
Q 1697 3084 1428 2787 
Q 1159 2491 1159 1978 
L 1159 0 
L 581 0 
L 581 3500 
L 1159 3500 
L 1159 2956 
Q 1366 3272 1645 3428 
Q 1925 3584 2291 3584 
Q 2894 3584 3203 3211 
Q 3513 2838 3513 2113 
z
" transform="scale(0.015625)"/>
      <path id="DejaVuSans-64" d="M 2906 2969 
L 2906 4863 
L 3481 4863 
L 3481 0 
L 2906 0 
L 2906 525 
Q 2725 213 2448 61 
Q 2172 -91 1784 -91 
Q 1150 -91 751 415 
Q 353 922 353 1747 
Q 353 2572 751 3078 
Q 1150 3584 1784 3584 
Q 2172 3584 2448 3432 
Q 2725 3281 2906 2969 
z
M 947 1747 
Q 947 1113 1208 752 
Q 1469 391 1925 391 
Q 2381 391 2643 752 
Q 2906 1113 2906 1747 
Q 2906 2381 2643 2742 
Q 2381 3103 1925 3103 
Q 1469 3103 1208 2742 
Q 947 2381 947 1747 
z
" transform="scale(0.015625)"/>
     </defs>
     <use xlink:href="#DejaVuSans-43"/>
     <use xlink:href="#DejaVuSans-61" x="69.824219"/>
     <use xlink:href="#DejaVuSans-6e" x="131.103516"/>
     <use xlink:href="#DejaVuSans-61" x="194.482422"/>
     <use xlink:href="#DejaVuSans-64" x="255.761719"/>
     <use xlink:href="#DejaVuSans-61" x="319.238281"/>
    </g>
   </g>
  </g>
 </g>
 <defs>
  <clipPath id="pc0a5950c81">
   <rect x="96.469949" y="86.4" width="545.060102" height="554.4"/>
  </clipPath>
 </defs>
</svg>
